<?xml version="1.0" encoding="UTF-8" standalone="no" ?>
<!DOCTYPE svg PUBLIC "-//W3C//DTD SVG 1.1//EN" "http://www.w3.org/Graphics/SVG/1.1/DTD/svg11.dtd">
<svg xmlns="http://www.w3.org/2000/svg" xmlns:xlink="http://www.w3.org/1999/xlink" version="1.1" width="1280" height="1024" viewBox="0 0 1280 1024" xml:space="preserve">
<desc>Created with Fabric.js 3.1.0</desc>
<defs>
</defs>
<g transform="matrix(1.9692780337941629 0 0 1.9692780337941629 640.0153846153846 512.012312418764)" id="background-logo"  >
<rect style="stroke: none; stroke-width: 1; stroke-dasharray: none; stroke-linecap: butt; stroke-dashoffset: 0; stroke-linejoin: miter; stroke-miterlimit: 10; fill: rgb(16,15,13); fill-rule: nonzero; opacity: 1;"  paint-order="stroke"  x="-325" y="-260" rx="0" ry="0" width="650" height="520" />
</g>
<g transform="matrix(1.9486972271557783 0 0 1.9486972271557783 725.2057023876807 475.00023216101)" style="" id="logo-logo"  >
	<g transform="matrix(0.1736 0 0 -0.1736 -24.191591794417945 10.371474088537212)"  >
<path style="stroke: none; stroke-width: 1; stroke-dasharray: none; stroke-linecap: butt; stroke-dashoffset: 0; stroke-linejoin: miter; stroke-miterlimit: 10; fill: rgb(237,29,36); fill-rule: nonzero; opacity: 1;"  paint-order="stroke"  transform=" translate(-624.865, -626.17039)" d="M 1249.73 626.168 C 1249.73 281.07 969.973 1.30078 624.863 1.30078 C 279.766 1.30078 0 281.07 0 626.168 c 0 345.105 279.766 624.872 624.863 624.872 c 345.11 0 624.867 -279.767 624.867 -624.872" stroke-linecap="round" />
</g>
	<g transform="matrix(0.1736 0 0 -0.1736 -114.39859179441797 79.95777408853718)"  >
<path style="stroke: none; stroke-width: 1; stroke-dasharray: none; stroke-linecap: butt; stroke-dashoffset: 0; stroke-linejoin: miter; stroke-miterlimit: 10; fill: rgb(255,255,255); fill-rule: nonzero; opacity: 1;"  paint-order="stroke"  transform=" translate(-105.15630000000002, -225.263565)" d="M 61.2266 2.32813 L 74.0508 422.563 H 61.2266 v 25.636 H 149.086 V 418.91 H 134.438 L 141.77 2.32813 H 61.2266" stroke-linecap="round" />
</g>
	<g transform="matrix(0.1736 0 0 -0.1736 -51.27219179441795 79.95777408853718)"  >
<path style="stroke: none; stroke-width: 1; stroke-dasharray: none; stroke-linecap: butt; stroke-dashoffset: 0; stroke-linejoin: miter; stroke-miterlimit: 10; fill: rgb(255,255,255); fill-rule: nonzero; opacity: 1;"  paint-order="stroke"  transform=" translate(-468.84599999999995, -225.263565)" d="M 424.926 2.32813 L 437.734 422.563 h -12.808 v 25.636 h 87.84 V 418.91 h -14.657 l 7.34 -416.58187 h -80.523" stroke-linecap="round" />
</g>
	<g transform="matrix(0.1736 0 0 -0.1736 -82.79719179441796 17.986574088537196)"  >
<path style="stroke: none; stroke-width: 1; stroke-dasharray: none; stroke-linecap: butt; stroke-dashoffset: 0; stroke-linejoin: miter; stroke-miterlimit: 10; fill: rgb(255,255,255); fill-rule: nonzero; opacity: 1;"  paint-order="stroke"  transform=" translate(-287.22137781587537, -582.2973333333333)" d="m -220.582 614.723 c 0 0 369.668 -71.36 1015.645 0 c 0 0 -5.489 -31.094 -65.864 -42.082 c 0 0 -459.344 -51.231 -887.578 0 c 0 0 -64.027 3.652 -62.203 42.082" stroke-linecap="round" />
</g>
	<g transform="matrix(0.1736 0 0 -0.1736 -82.00389179441794 34.511974088537215)"  >
<path style="stroke: none; stroke-width: 1; stroke-dasharray: none; stroke-linecap: butt; stroke-dashoffset: 0; stroke-linejoin: miter; stroke-miterlimit: 10; fill: rgb(255,255,255); fill-rule: nonzero; opacity: 1;"  paint-order="stroke"  transform=" translate(-291.79166429006716, -487.08950000000004)" d="m 689.082 525.98 c 0 0 -12.961 -33.867 -62.359 -32.05 c 0 0 9.14 -45.731 -60.395 -45.731 H 344.883 v 20.137 H 231.43 V 448.199 H -10.1367 c 0 0 -52.6992 4.168 -51.2461 38.887 c 0 0 -47.5822 -4.211 -43.9142 37.957 c 0 0 503.567 -43.895 794.379 0.937" stroke-linecap="round" />
</g>
	<g transform="matrix(0.1736 0 0 -0.1736 -83.42949179441794 60.4789740885372)"  >
<path style="stroke: none; stroke-width: 1; stroke-dasharray: none; stroke-linecap: butt; stroke-dashoffset: 0; stroke-linejoin: miter; stroke-miterlimit: 10; fill: rgb(255,255,255); fill-rule: nonzero; opacity: 1;"  paint-order="stroke"  transform=" translate(-283.57829999999996, -337.4865)" d="M -72.3594 365.852 H 639.516 L 615.742 349.379 V 309.121 H -41.2383 v 40.258 l -31.1211 16.473" stroke-linecap="round" />
</g>
	<g transform="matrix(0.1736 0 0 -0.1736 -122.65859179441796 95.20487408853722)"  >
<path style="stroke: none; stroke-width: 1; stroke-dasharray: none; stroke-linecap: butt; stroke-dashoffset: 0; stroke-linejoin: miter; stroke-miterlimit: 10; fill: rgb(255,255,255); fill-rule: nonzero; opacity: 1;"  paint-order="stroke"  transform=" translate(-57.568149999999996, -137.42006499999997)" d="M 11.8281 2.32813 L 20.9805 217.609 H 4.51563 v 23.801 l -14.65233 14.649 l 64.0625 16.453 h 7.3008 L 125.273 256.059 L 110.648 241.41 V 217.609 H 94.1797 L 103.324 2.32813 H 11.8281" stroke-linecap="round" />
</g>
	<g transform="matrix(0.1736 0 0 -0.1736 -123.15389179441794 89.1671740885372)"  >
<path style="stroke: none; stroke-width: 1; stroke-dasharray: none; stroke-linecap: butt; stroke-dashoffset: 0; stroke-linejoin: miter; stroke-miterlimit: 10; fill: rgb(237,29,36); fill-rule: nonzero; opacity: 1;"  paint-order="stroke"  transform=" translate(-54.7148, -172.20499999999998)" d="m 38.5898 198.621 h 32.25 v -20.57 H 66.5977 V 145.789 H 43.3945 v 30.199 h -4.8047 v 22.633" stroke-linecap="round" />
</g>
	<g transform="matrix(0.1736 0 0 -0.1736 -123.15389179441794 106.55727408853716)"  >
<path style="stroke: none; stroke-width: 1; stroke-dasharray: none; stroke-linecap: butt; stroke-dashoffset: 0; stroke-linejoin: miter; stroke-miterlimit: 10; fill: rgb(237,29,36); fill-rule: nonzero; opacity: 1;"  paint-order="stroke"  transform=" translate(-54.7148, -72.0156)" d="m 38.5898 98.4414 h 32.25 V 77.8594 H 66.5977 V 45.5898 H 43.3945 v 30.211 h -4.8047 v 22.6406" stroke-linecap="round" />
</g>
	<g transform="matrix(0.1736 0 0 -0.1736 -41.95999179441799 95.20487408853722)"  >
<path style="stroke: none; stroke-width: 1; stroke-dasharray: none; stroke-linecap: butt; stroke-dashoffset: 0; stroke-linejoin: miter; stroke-miterlimit: 10; fill: rgb(255,255,255); fill-rule: nonzero; opacity: 1;"  paint-order="stroke"  transform=" translate(-522.496, -137.42006499999997)" d="m 476.754 2.32813 l 9.152 215.28087 h -16.465 v 23.801 l -14.652 14.649 l 64.059 16.453 h 7.304 L 590.203 256.059 L 575.57 241.41 V 217.609 H 559.105 L 568.246 2.32813 h -91.492" stroke-linecap="round" />
</g>
	<g transform="matrix(0.1736 0 0 -0.1736 -42.45659179441793 89.1671740885372)"  >
<path style="stroke: none; stroke-width: 1; stroke-dasharray: none; stroke-linecap: butt; stroke-dashoffset: 0; stroke-linejoin: miter; stroke-miterlimit: 10; fill: rgb(237,29,36); fill-rule: nonzero; opacity: 1;"  paint-order="stroke"  transform=" translate(-519.635, -172.20499999999998)" d="m 503.512 198.621 h 32.246 v -20.57 h -4.227 V 145.789 H 508.32 v 30.199 h -4.808 v 22.633" stroke-linecap="round" />
</g>
	<g transform="matrix(0.1736 0 0 -0.1736 -42.45659179441793 106.55727408853716)"  >
<path style="stroke: none; stroke-width: 1; stroke-dasharray: none; stroke-linecap: butt; stroke-dashoffset: 0; stroke-linejoin: miter; stroke-miterlimit: 10; fill: rgb(237,29,36); fill-rule: nonzero; opacity: 1;"  paint-order="stroke"  transform=" translate(-519.635, -72.0156)" d="m 503.512 98.4414 h 32.246 v -20.582 h -4.227 V 45.5898 H 508.32 v 30.211 h -4.808 v 22.6406" stroke-linecap="round" />
</g>
	<g transform="matrix(0.1736 0 0 -0.1736 -83.13949179441795 26.484174088537202)"  >
<path style="stroke: none; stroke-width: 1; stroke-dasharray: none; stroke-linecap: butt; stroke-dashoffset: 0; stroke-linejoin: miter; stroke-miterlimit: 10; fill: rgb(237,29,36); fill-rule: nonzero; opacity: 1;"  paint-order="stroke"  transform=" translate(-285.2494685469334, -533.34)" d="m -105.297 525.043 c 0 0 153.7306 -10.965 298.289 -21.953 v -9.051 h 184.821 v 8.152 c 0 0 140.937 6.387 298.308 22.852 c 0 0 62.234 -1.805 53.078 47.598 c 0 0 -386.133 -51.231 -887.578 0 c 0 0 -14.144 -42.735 53.082 -47.598" stroke-linecap="round" />
</g>
	<g transform="matrix(0.1736 0 0 -0.1736 82.481608205582 -17.385225911462754)"  >
<path style="stroke: none; stroke-width: 1; stroke-dasharray: none; stroke-linecap: butt; stroke-dashoffset: 0; stroke-linejoin: miter; stroke-miterlimit: 10; fill: rgb(255,255,255); fill-rule: nonzero; opacity: 1;"  paint-order="stroke"  transform=" translate(-1239.4405, -786.0845743417483)" d="M 1749.1 800.09 L 729.781 772.539 c 0 0 799.749 -6.277 1019.319 27.551" stroke-linecap="round" />
</g>
	<g transform="matrix(0.1736 0 0 -0.1736 52.644908205582055 -56.15742591146275)"  >
<path style="stroke: none; stroke-width: 1; stroke-dasharray: none; stroke-linecap: butt; stroke-dashoffset: 0; stroke-linejoin: miter; stroke-miterlimit: 10; fill: rgb(255,255,255); fill-rule: nonzero; opacity: 1;"  paint-order="stroke"  transform=" translate(-1067.5425, -1009.4625)" d="M 783.355 1229.57 L 1351.73 789.355 c 0 0 -451.488 308.945 -568.375 440.215" stroke-linecap="round" />
</g>
	<g transform="matrix(0.1736 0 0 -0.1736 89.14540820558204 7.313874088537204)"  >
<path style="stroke: none; stroke-width: 1; stroke-dasharray: none; stroke-linecap: butt; stroke-dashoffset: 0; stroke-linejoin: miter; stroke-miterlimit: 10; fill: rgb(255,255,255); fill-rule: nonzero; opacity: 1;"  paint-order="stroke"  transform=" translate(-1277.832663772061, -643.7859691056927)" d="m 1380.58 512.867 c 0 0 -101.63 262.293 -174.21 261.395 c 0 0 -70.61 10.433 0.33 -69.969 c 0 0 135.78 -185.41 173.88 -191.426" stroke-linecap="round" />
</g>
	<g transform="matrix(0.1736 0 0 -0.1736 66.29900820558203 6.729974088537233)"  >
<path style="stroke: none; stroke-width: 1; stroke-dasharray: none; stroke-linecap: butt; stroke-dashoffset: 0; stroke-linejoin: miter; stroke-miterlimit: 10; fill: rgb(255,255,255); fill-rule: nonzero; opacity: 1;"  paint-order="stroke"  transform=" translate(-1146.2075835660896, -647.149777209552)" d="m 1159.73 723.035 c 0 0 -5.03 40.047 -22.46 37.82 c -17.44 -2.246 -31.39 -14.14 -18.52 -46.425 l 58.4 -181.075 c 0 0 9.19 93.153 -17.42 189.68" stroke-linecap="round" />
</g>
	<g transform="matrix(0.1736 0 0 -0.1736 58.31060820558207 -7.3754259114627985)"  >
<path style="stroke: none; stroke-width: 1; stroke-dasharray: none; stroke-linecap: butt; stroke-dashoffset: 0; stroke-linejoin: miter; stroke-miterlimit: 10; fill: rgb(255,255,255); fill-rule: nonzero; opacity: 1;"  paint-order="stroke"  transform=" translate(-1100.1845795120735, -728.4149876765041)" d="m 1077.8 652.074 l 45.41 131.11 c 0 0 9.91 17.961 -7.23 21.117 c -17.14 3.156 -22.85 -11.141 -22.85 -11.141 c 0 0 -28.54 -115.597 -15.33 -141.086" stroke-linecap="round" />
</g>
	<g transform="matrix(0.1736 0 0 -0.1736 49.81050820558204 14.86797408853721)"  >
<path style="stroke: none; stroke-width: 1; stroke-dasharray: none; stroke-linecap: butt; stroke-dashoffset: 0; stroke-linejoin: miter; stroke-miterlimit: 10; fill: rgb(255,255,255); fill-rule: nonzero; opacity: 1;"  paint-order="stroke"  transform=" translate(-1051.2128844059957, -600.2644212695179)" d="m 1143 392.379 c 0 0 -119.06 421.035 -169.199 415.277 c 0 0 -37.301 12.641 8.269 -89.988 c 0 0 96.47 -270.105 160.93 -325.289" stroke-linecap="round" />
</g>
	<g transform="matrix(0.1736 0 0 -0.1736 30.366608205582054 8.247174088537236)"  >
<path style="stroke: none; stroke-width: 1; stroke-dasharray: none; stroke-linecap: butt; stroke-dashoffset: 0; stroke-linejoin: miter; stroke-miterlimit: 10; fill: rgb(255,255,255); fill-rule: nonzero; opacity: 1;"  paint-order="stroke"  transform=" translate(-939.1908023148152, -638.4088337523813)" d="m 928.047 503.91 c 0 0 1.637 113.039 27.328 224.426 c 0 0 23.16 38.887 -17.09 43.805 c 0 0 -30.203 13.75 -19.004 -75.211 c 0 0 -10.625 -153.977 8.766 -193.02" stroke-linecap="round" />
</g>
	<g transform="matrix(0.1736 0 0 -0.1736 11.55000820558206 -3.204425911462806)"  >
<path style="stroke: none; stroke-width: 1; stroke-dasharray: none; stroke-linecap: butt; stroke-dashoffset: 0; stroke-linejoin: miter; stroke-miterlimit: 10; fill: rgb(255,255,255); fill-rule: nonzero; opacity: 1;"  paint-order="stroke"  transform=" translate(-830.7830353373299, -704.3848581432943)" d="m 724.871 584.984 c 0 0 296.019 170.106 188.18 236.461 c 0 0 -30.36 20.727 -74.082 -61.175 L 724.871 584.984" stroke-linecap="round" />
</g>
	<g transform="matrix(0.1736 0 0 -0.1736 -6.260891794417944 -2.1708259114627992)"  >
<path style="stroke: none; stroke-width: 1; stroke-dasharray: none; stroke-linecap: butt; stroke-dashoffset: 0; stroke-linejoin: miter; stroke-miterlimit: 10; fill: rgb(255,255,255); fill-rule: nonzero; opacity: 1;"  paint-order="stroke"  transform=" translate(-728.169432778632, -698.43)" d="m 617.59 602.016 c 0 0 177.578 149.922 199.473 154.078 c 0 0 45.691 22.285 4.429 38.75 c 0 0 -95.5 -41.039 -203.902 -192.828" stroke-linecap="round" />
</g>
	<g transform="matrix(0.1736 0 0 -0.1736 -44.86679179441796 12.058174088537214)"  >
<path style="stroke: none; stroke-width: 1; stroke-dasharray: none; stroke-linecap: butt; stroke-dashoffset: 0; stroke-linejoin: miter; stroke-miterlimit: 10; fill: rgb(255,255,255); fill-rule: nonzero; opacity: 1;"  paint-order="stroke"  transform=" translate(-505.749194577337, -616.4525598383906)" d="m 510.398 545.434 c 0 0 38.59 133.644 -9.668 141.847 c 0 0 -37.742 11.375 9.668 -141.847" stroke-linecap="round" />
</g>
	<g transform="matrix(0.1736 0 0 -0.1736 -61.63039179441796 1.8037740885372386)"  >
<path style="stroke: none; stroke-width: 1; stroke-dasharray: none; stroke-linecap: butt; stroke-dashoffset: 0; stroke-linejoin: miter; stroke-miterlimit: 10; fill: rgb(255,255,255); fill-rule: nonzero; opacity: 1;"  paint-order="stroke"  transform=" translate(-409.16915902269125, -675.5313247972222)" d="m 309.773 596.059 c 0 0 249.032 93.808 189.637 143.261 c 0 0 -19.683 42.832 -73.277 -13.07 L 309.773 596.059" stroke-linecap="round" />
</g>
	<g transform="matrix(0.1736 0 0 -0.1736 -18.77939179441796 -28.65652591146275)"  >
<path style="stroke: none; stroke-width: 1; stroke-dasharray: none; stroke-linecap: butt; stroke-dashoffset: 0; stroke-linejoin: miter; stroke-miterlimit: 10; fill: rgb(255,255,255); fill-rule: nonzero; opacity: 1;"  paint-order="stroke"  transform=" translate(-656.0465, -851.0216117927331)" d="m 743.902 766.441 c 0 0 -95.882 50.184 -175.711 172.899 c 0 0 70.254 -206.711 175.711 -172.899" stroke-linecap="round" />
</g>
	<g transform="matrix(0.1736 0 0 -0.1736 -27.367591794417933 -7.303925911462784)"  >
<path style="stroke: none; stroke-width: 1; stroke-dasharray: none; stroke-linecap: butt; stroke-dashoffset: 0; stroke-linejoin: miter; stroke-miterlimit: 10; fill: rgb(255,255,255); fill-rule: nonzero; opacity: 1;"  paint-order="stroke"  transform=" translate(-606.5671896996072, -728.0035790899944)" d="m 729.449 803.965 c 0 0 26.289 61.254 -44.445 17.726 c 0 0 -167.078 -192.761 -206.098 -202.996 c 0 0 121.504 60.121 250.543 185.27" stroke-linecap="round" />
</g>
	<g transform="matrix(0.1736 0 0 -0.1736 -47.798291794417935 -34.4233259114628)"  >
<path style="stroke: none; stroke-width: 1; stroke-dasharray: none; stroke-linecap: butt; stroke-dashoffset: 0; stroke-linejoin: miter; stroke-miterlimit: 10; fill: rgb(255,255,255); fill-rule: nonzero; opacity: 1;"  paint-order="stroke"  transform=" translate(-488.8601902524277, -884.2462464547452)" d="m 524.766 793.605 c 0 0 29.558 -50.402 57.136 -31.968 c 0 0 33.082 18.242 -42.859 67.765 c -75.914 49.536 -150.242 181.508 -150.242 181.508 c 0 0 -10.231 -70.086 135.965 -217.305" stroke-linecap="round" />
</g>
	<g transform="matrix(0.1736 0 0 -0.1736 -29.94969179441796 -25.79982591146282)"  >
<path style="stroke: none; stroke-width: 1; stroke-dasharray: none; stroke-linecap: butt; stroke-dashoffset: 0; stroke-linejoin: miter; stroke-miterlimit: 10; fill: rgb(255,255,255); fill-rule: nonzero; opacity: 1;"  paint-order="stroke"  transform=" translate(-591.6913615680326, -834.5633008447905)" d="m 720.777 860.613 c 0 0 34.414 44.567 -36.507 14.555 c -70.93 -30.008 -230.012 -70.906 -230.012 -70.906 c 0 0 102.488 -73.422 266.519 56.351" stroke-linecap="round" />
</g>
	<g transform="matrix(0.1736 0 0 -0.1736 -14.51329179441791 -39.804225911462794)"  >
<path style="stroke: none; stroke-width: 1; stroke-dasharray: none; stroke-linecap: butt; stroke-dashoffset: 0; stroke-linejoin: miter; stroke-miterlimit: 10; fill: rgb(255,255,255); fill-rule: nonzero; opacity: 1;"  paint-order="stroke"  transform=" translate(-680.6245332033138, -915.2468068653775)" d="m 709.188 933.063 c 0 0 29.05 26.667 0.292 42.226 c -28.757 15.555 -32.847 -8.57 -40.757 -33.039 c -7.942 -24.418 -29.66 -91.969 -29.66 -91.969 l 70.125 82.782" stroke-linecap="round" />
</g>
	<g transform="matrix(0.1736 0 0 -0.1736 10.157208205582037 -41.1555259114628)"  >
<path style="stroke: none; stroke-width: 1; stroke-dasharray: none; stroke-linecap: butt; stroke-dashoffset: 0; stroke-linejoin: miter; stroke-miterlimit: 10; fill: rgb(255,255,255); fill-rule: nonzero; opacity: 1;"  paint-order="stroke"  transform=" translate(-822.7583212461311, -923.032044138657)" d="m 886.93 843.586 c 0 0 -43.633 38.215 -74.825 135.316 c 0 0 -16.183 37.738 -44.425 17.723 c 0 0 -29.426 -12.664 17.59 -52.793 c 0 0 38.679 -60.965 101.66 -100.246" stroke-linecap="round" />
</g>
	<g transform="matrix(0.1736 0 0 -0.1736 23.628108205582066 -51.34692591146276)"  >
<path style="stroke: none; stroke-width: 1; stroke-dasharray: none; stroke-linecap: butt; stroke-dashoffset: 0; stroke-linejoin: miter; stroke-miterlimit: 10; fill: rgb(255,255,255); fill-rule: nonzero; opacity: 1;"  paint-order="stroke"  transform=" translate(-900.3681684072521, -981.748)" d="m 956.832 825.016 c 0 0 -29.859 115.429 -58.539 237.254 c 0 0 0.496 71.56 -35.367 76.21 c 0 0 -49.836 -2.68 11.824 -117.89 c 0 0 12.73 -75.449 82.082 -195.574" stroke-linecap="round" />
</g>
	<g transform="matrix(0.1736 0 0 -0.1736 30.736308205582077 -63.91172591146278)"  >
<path style="stroke: none; stroke-width: 1; stroke-dasharray: none; stroke-linecap: butt; stroke-dashoffset: 0; stroke-linejoin: miter; stroke-miterlimit: 10; fill: rgb(255,255,255); fill-rule: nonzero; opacity: 1;"  paint-order="stroke"  transform=" translate(-941.3210647356227, -1054.1374270580936)" d="m 1018.85 946.539 c 0 0 -101.803 250.391 -148.319 210.991 c 0 0 -54.832 -14 148.319 -210.991" stroke-linecap="round" />
</g>
	<g transform="matrix(0.1736 0 0 -0.1736 5.965708205582018 -62.060825911462786)"  >
<path style="stroke: none; stroke-width: 1; stroke-dasharray: none; stroke-linecap: butt; stroke-dashoffset: 0; stroke-linejoin: miter; stroke-miterlimit: 10; fill: rgb(255,255,255); fill-rule: nonzero; opacity: 1;"  paint-order="stroke"  transform=" translate(-798.610229910013, -1043.473869461341)" d="m 753.246 936.602 c 0 0 122.168 219.378 82.977 213.418 c 0 0 -33.743 17.99 -82.977 -213.418" stroke-linecap="round" />
</g>
	<g transform="matrix(0.1736 0 0 -0.1736 -19.363891794417952 -106.40052591146278)"  >
<path style="stroke: none; stroke-width: 1; stroke-dasharray: none; stroke-linecap: butt; stroke-dashoffset: 0; stroke-linejoin: miter; stroke-miterlimit: 10; fill: rgb(255,255,255); fill-rule: nonzero; opacity: 1;"  paint-order="stroke"  transform=" translate(-652.6792023542916, -1298.9277167400699)" d="m 547.895 1370.43 c 0 0 220.949 -55.04 209.109 -140.02 c 0 0 -10.207 -15.24 -52.379 20.91 c -42.16 36.14 -138.16 124.11 -156.73 119.11" stroke-linecap="round" />
</g>
	<g transform="matrix(0.1736 0 0 -0.1736 -0.2535917944179573 -89.79392591146276)"  >
<path style="stroke: none; stroke-width: 1; stroke-dasharray: none; stroke-linecap: butt; stroke-dashoffset: 0; stroke-linejoin: miter; stroke-miterlimit: 10; fill: rgb(255,255,255); fill-rule: nonzero; opacity: 1;"  paint-order="stroke"  transform=" translate(-762.7792349647186, -1203.2520573548754)" d="m 680.996 1222.11 c 0 0 137.18 31.07 163.524 -35.18 c 0 0 2.597 -24.66 -32.825 4.2 c 0 0 -68.187 51.57 -130.699 30.98" stroke-linecap="round" />
</g>
	<g transform="matrix(0.1736 0 0 -0.1736 -16.22739179441794 -86.53132591146277)"  >
<path style="stroke: none; stroke-width: 1; stroke-dasharray: none; stroke-linecap: butt; stroke-dashoffset: 0; stroke-linejoin: miter; stroke-miterlimit: 10; fill: rgb(255,255,255); fill-rule: nonzero; opacity: 1;"  paint-order="stroke"  transform=" translate(-670.7490311947192, -1184.4554592073148)" d="m 574.215 1235.73 c 0 0 189.973 -63.38 190.961 -88.61 c 0 0 18.394 -26.66 -53.512 -6.24 c 0 0 -105.047 51.56 -137.449 94.85" stroke-linecap="round" />
</g>
	<g transform="matrix(0.1736 0 0 -0.1736 -20.981591794417966 -74.01222591146279)"  >
<path style="stroke: none; stroke-width: 1; stroke-dasharray: none; stroke-linecap: butt; stroke-dashoffset: 0; stroke-linejoin: miter; stroke-miterlimit: 10; fill: rgb(255,255,255); fill-rule: nonzero; opacity: 1;"  paint-order="stroke"  transform=" translate(-643.3588905155642, -1112.3289907859526)" d="m 565.219 1164.79 c 0 0 166.289 -49.03 155.804 -91.45 c 0 0 5.247 -65.25 -155.804 91.45" stroke-linecap="round" />
</g>
	<g transform="matrix(0.1736 0 0 -0.1736 -11.749391794417988 -59.21352591146277)"  >
<path style="stroke: none; stroke-width: 1; stroke-dasharray: none; stroke-linecap: butt; stroke-dashoffset: 0; stroke-linejoin: miter; stroke-miterlimit: 10; fill: rgb(255,255,255); fill-rule: nonzero; opacity: 1;"  paint-order="stroke"  transform=" translate(-696.5485017918509, -1027.0694167920678)" d="m 653.941 996.23 c 0 0 62.09 94.65 83.641 49.45 c 0 0 20.137 -28.09 -83.641 -49.45" stroke-linecap="round" />
</g>
	<g transform="matrix(0.1736 0 0 -0.1736 -12.112391794417931 -73.53162591146278)"  >
<path style="stroke: none; stroke-width: 1; stroke-dasharray: none; stroke-linecap: butt; stroke-dashoffset: 0; stroke-linejoin: miter; stroke-miterlimit: 10; fill: rgb(255,255,255); fill-rule: nonzero; opacity: 1;"  paint-order="stroke"  transform=" translate(-694.457, -1109.5601412103156)" d="m 808.992 1171.05 c 0 0 -91.437 -112.12 -229.07 -121.6 c 0 0 208.285 -23.3 229.07 121.6" stroke-linecap="round" />
</g>
	<g transform="matrix(0.1736 0 0 -0.1736 33.42770820558201 73.58727408853724)"  >
<path style="stroke: none; stroke-width: 1; stroke-dasharray: none; stroke-linecap: butt; stroke-dashoffset: 0; stroke-linejoin: miter; stroke-miterlimit: 10; fill: rgb(255,255,255); fill-rule: nonzero; opacity: 1;"  paint-order="stroke"  transform=" translate(-956.8264563848259, -261.965853978285)" d="m 767.371 196.852 c 0 0 18.66 10.046 26.555 15.789 c 7.883 5.73 23.676 10.769 14.351 -1.442 c -9.332 -12.179 8.614 -5.738 17.938 -3.578 c 9.328 2.149 4.308 7.891 2.168 14.359 c -2.168 6.461 2.14 16.489 21.519 27.989 c 19.375 11.48 46.657 19.383 38.75 -1.438 c -7.898 -20.832 10.043 -7.832 10.043 -7.832 l 15.09 11.422 c 14.352 15.051 44.477 25.098 30.137 -3.59 c -14.352 -28.711 1.414 -18.672 4.301 -15.09 c 2.882 3.618 18.656 2.168 8.613 -11.461 c -10.043 -13.64 -0.723 -20.109 5.727 -22.261 c 6.464 -2.149 11.5 -28.707 13.648 -40.199 c 2.164 -11.461 8.609 11.492 4.656 18.679 c -3.957 7.172 -4.656 17.192 0 23.672 c 4.66 6.469 -3.949 22.969 -4.656 29.43 c -0.719 6.449 0 32.301 4.656 17.23 c 4.66 -15.09 8.258 26.539 8.258 26.539 c 0 0 4.313 33.739 18.655 13.961 c 14.34 -19.781 15.08 0 15.08 0 c -1.45 15.379 26.55 -8.211 26.55 -8.211 c 20.82 -18.672 15.79 -1.449 15.79 -1.449 c -1.44 15.809 44.49 -25.832 44.49 -25.832 c 21.65 -31.73 25.11 -16.48 25.11 -16.48 c -12.92 13.64 8.61 3.64 8.61 3.64 c 70.34 -34.379 47.38 -15.859 47.38 -15.859 c -80.39 35.89 -180.86 119.129 -180.86 119.129 c -44.492 53.086 -81.809 0 -81.809 0 c -97.613 -100.469 -160.75 -133.5 -160.75 -133.5 l -28.711 -17.207 l -19.379 -9.321 c 0 0 17.219 -5.519 48.09 12.911" stroke-linecap="round" />
</g>
	<g transform="matrix(0.1736 0 0 -0.1736 0.5072082055820601 62.13447408853722)"  >
<path style="stroke: none; stroke-width: 1; stroke-dasharray: none; stroke-linecap: butt; stroke-dashoffset: 0; stroke-linejoin: miter; stroke-miterlimit: 10; fill: rgb(255,255,255); fill-rule: nonzero; opacity: 1;"  paint-order="stroke"  transform=" translate(-767.1620883385083, -327.94866349028393)" d="m 880.121 300.891 c 0 0 -11.129 4.199 -15.836 6.558 c -4.699 2.403 -14.125 4.492 -8.558 -0.578 c 5.566 -5.07 -5.141 -2.391 -10.692 -1.492 c -5.566 0.891 -2.57 3.269 -1.297 5.949 c 1.297 2.703 -1.273 6.863 -12.824 11.641 c -11.559 4.769 -27.816 8.043 -23.098 -0.61 c 4.696 -8.621 -5.984 -3.238 -5.984 -3.238 l -9.016 4.731 c -8.539 6.25 -26.515 10.437 -17.957 -1.493 c 8.559 -11.929 -0.851 -7.757 -2.574 -6.257 c -1.715 1.5 -11.125 0.898 -5.129 -4.774 c 5.992 -5.648 0.426 -8.328 -3.422 -9.226 c -3.847 -0.891 -6.843 -11.911 -8.136 -16.692 c -1.282 -4.769 -5.125 4.781 -2.77 7.762 c 2.348 2.969 2.77 7.148 0 9.828 c -2.777 2.68 2.348 9.52 2.77 12.199 c 0.433 2.711 0 13.43 -2.77 7.16 c -2.777 -6.257 -4.922 11.032 -4.922 11.032 c 0 0 -2.57 14 -11.133 5.781 c -8.546 -8.192 -8.976 0 -8.976 0 c 0.859 6.41 -15.84 -3.391 -15.84 -3.391 c -12.406 -7.769 -9.398 -0.601 -9.398 -0.601 c 0.847 6.55 -26.539 -10.719 -26.539 -10.719 c -12.895 -13.191 -14.965 -6.859 -14.965 -6.859 c 7.699 5.648 -5.137 1.519 -5.137 1.519 c -41.934 -14.281 -28.242 -6.601 -28.242 -6.601 c 47.926 14.921 107.832 49.48 107.832 49.48 c 26.519 22.047 48.769 0 48.769 0 c 58.2 -41.719 95.844 -55.441 95.844 -55.441 l 17.113 -7.149 l 11.551 -3.879 c 0 0 -10.269 -2.281 -28.664 5.36" stroke-linecap="round" />
</g>
</g>
<g transform="matrix(1.9692780337941629 0 0 1.9692780337941629 494.0051830776483 368.60752576783545)" id="text-logo-path"  >
<path style="stroke: none; stroke-width: 1; stroke-dasharray: none; stroke-linecap: butt; stroke-dashoffset: 0; stroke-linejoin: miter; stroke-miterlimit: 10; fill: rgb(255,255,255); fill-rule: nonzero; opacity: 1;"  paint-order="stroke"  transform=" translate(-53.145, 19.35)" d="M 2.61 8.22 L 1.84 -1.45 Q 6.35 -1.84 8.93 -5.16 L 8.93 -5.16 Q 11.12 -7.96 11.12 -25.65 L 11.12 -25.65 Q 11.12 -28.75 11.05 -32.29 L 11.05 -32.29 L 15.44 -34.55 L 3.25 -34.55 L 5.45 -43.73 L 20.59 -43.73 L 20.59 -10.05 Q 20.43 -5.67 19.51 -2.47 Q 18.59 0.74 14.18 4.11 Q 9.76 7.48 2.61 8.22 L 2.61 8.22 Z M 27.04 -34.22 L 23.94 -34.22 L 25.49 -43.8 L 53.92 -43.8 L 60.1 -43.76 L 60.1 -24.17 Q 60.2 -23.07 60.2 -21.98 L 60.2 -21.98 Q 60.2 -18.18 59.17 -14.7 L 59.17 -14.7 Q 57.81 -10.18 54.01 -5.87 L 54.01 -5.87 Q 50.14 -1.58 45.57 -0.58 L 45.57 -0.58 Q 42.25 0.13 32.74 0.13 L 32.74 0.13 Q 29.07 0.13 24.46 0.03 L 24.46 0.03 L 24.52 -9.12 L 30.65 -9.18 L 27.04 -10.99 L 27.04 -34.22 Z M 36.35 -34.22 L 36.35 -8.93 Q 37.51 -8.77 38.61 -8.77 L 38.61 -8.77 Q 42.09 -8.77 44.79 -10.44 L 44.79 -10.44 Q 48.34 -12.63 49.53 -15.86 L 49.53 -15.86 Q 50.4 -18.24 50.4 -26.84 L 50.4 -26.84 Q 50.4 -30.1 50.27 -34.22 L 50.27 -34.22 L 36.35 -34.22 Z M 67.71 -34.16 L 63.23 -34.16 L 65.9 -43.67 L 78.92 -43.67 L 78.92 -46.92 L 89.11 -46.83 L 89.11 -43.67 L 100.03 -43.67 Q 104.03 -43.05 104.45 -39.22 L 104.45 -39.22 L 104.38 -9.99 Q 102.74 -3.03 99.77 -1.14 Q 96.81 0.74 92.46 0.74 L 92.46 0.74 L 92.46 -9.02 Q 92.49 -9.02 92.55 -9.02 L 92.55 -9.02 Q 94.75 -9.02 94.75 -18.27 L 94.75 -18.27 Q 94.75 -19.75 94.68 -21.5 L 94.68 -21.5 L 94.68 -33.9 L 89.2 -33.9 L 89.2 -1.42 L 78.83 0.42 L 78.86 -33.9 L 74.6 -33.9 L 74.6 -0.87 L 64.23 0.45 L 64.2 -32.07 L 67.71 -34.16 Z" stroke-linecap="round" />
</g>
</svg>